<svg xmlns="http://www.w3.org/2000/svg" fill="currentColor" viewBox="0 0 24 24"><path fill-rule="evenodd" d="M2 5.997a1 1 0 0 1 1-1h18a1 1 0 0 1 1 1v12a1 1 0 0 1-1 1H3a1 1 0 0 1-1-1v-12zm3 3a1 1 0 0 1 1-1h2a1 1 0 0 1 1 1v2a1 1 0 0 1-1 1H6a1 1 0 0 1-1-1v-2zm11.05 5.021c-.203.432-.767.475-1.105.138-.256-.257-.291-.653-.161-.99A3.24 3.24 0 0 0 15 11.997c0-.412-.076-.805-.216-1.168-.13-.338-.095-.734.161-.99.338-.337.902-.294 1.105.138.289.613.45 1.298.45 2.02a4.73 4.73 0 0 1-.45 2.021zm.997 1.299c-.205.326-.184.756.088 1.028.316.316.839.293 1.085-.08a7.714 7.714 0 0 0 1.28-4.268c0-1.577-.47-3.043-1.28-4.267-.246-.373-.769-.397-1.085-.08-.272.272-.293.702-.088 1.028.604.961.953 2.1.953 3.32a6.22 6.22 0 0 1-.953 3.319z" clip-rule="evenodd"/></svg>